<?xml version="1.0" encoding="iso-8859-1"?>
<!-- Generator: Adobe Illustrator 19.0.0, SVG Export Plug-In . SVG Version: 6.00 Build 0)  -->
<svg version="1.1" id="Capa_1" xmlns="http://www.w3.org/2000/svg" xmlns:xlink="http://www.w3.org/1999/xlink" x="0px" y="0px"
	 viewBox="0 0 64 64" style="enable-background:new 0 0 64 64;" xml:space="preserve">
<g>
	<path d="M56.835,60.463C55.743,58.973,53.985,58,52,58v2c2.206,0,4,1.794,4,4h2c0-3.309,2.691-6,6-6v-2
		C60.86,56,58.144,57.823,56.835,60.463z"/>
	<path d="M64,12v-2c-0.592,0-1.152,0.121-1.679,0.311c0.242-2.482-0.628-5.033-2.614-7.018l-3-3l-1.414,1.414l3,3
		c2.4,2.401,2.69,5.872,0.873,8.533c-1.159-2.506-3.431-4.391-6.184-5.013L50.659,6H54V4h-5.427l-2.086-2H51V0h-7
		c-0.408,0-0.775,0.248-0.928,0.627c-0.152,0.379-0.059,0.812,0.235,1.095L49.855,8H43c-4.963,0-9,4.038-9,9c0,0.552,0.447,1,1,1
		h10.615l-3.979,3.979C41.315,22.3,41.033,22.645,40.771,23h-5.357l-3.707-3.707C31.519,19.105,31.266,19,31,19h-4.586l-2.707-2.707
		c-0.391-0.391-1.023-0.391-1.414,0L19,19.586l-1.793-1.793c-0.391-0.391-1.023-0.391-1.414,0L13.586,20H10
		c-0.266,0-0.52,0.105-0.707,0.293L7,22.586l-3.293-3.293C3.519,19.105,3.266,19,3,19H0v2h2.586l2,2H0v2h23h2.5
		c1.379,0,2.5,1.122,2.5,2.5S26.879,30,25.5,30h-3c-2.481,0-4.5,2.019-4.5,4.5s2.019,4.5,4.5,4.5h11c1.379,0,2.5,1.122,2.5,2.5
		c0,2.481,2.019,4.5,4.5,4.5c1.379,0,2.5,1.122,2.5,2.5S41.879,51,40.5,51h-15c-1.93,0-3.5,1.57-3.5,3.5s1.57,3.5,3.5,3.5H27
		c1.102,0,2,0.897,2,2s-0.898,2-2,2H0v2h27c2.206,0,4-1.794,4-4s-1.794-4-4-4h-1.5c-0.827,0-1.5-0.673-1.5-1.5s0.673-1.5,1.5-1.5h15
		c2.481,0,4.5-2.019,4.5-4.5S42.981,44,40.5,44c-1.379,0-2.5-1.122-2.5-2.5c0-2.481-2.019-4.5-4.5-4.5h-11
		c-1.379,0-2.5-1.122-2.5-2.5s1.121-2.5,2.5-2.5h3c2.481,0,4.5-2.019,4.5-4.5c0-0.925-0.282-1.784-0.762-2.5h10.408
		c-1.292,3.242-0.63,7.087,1.989,9.707C41.823,34.895,42.077,35,42.343,35c0.002,0,0.003,0,0.005,0
		c0.268-0.001,0.522-0.109,0.709-0.3l11.338-11.571C55.037,24.819,56.405,26,58,26v20.792c-1.613,1.055-2.928,2.521-3.805,4.248
		c-4.391,0.392-7.875,3.948-8.165,8.367C44.25,60.174,43,61.943,43,64h2c0-1.654,1.346-3,3-3v-1c0-3.3,2.298-6.066,5.375-6.802
		C53.139,54.094,53,55.03,53,56h2c0-4.962,4.037-9,9-9v-2V26.5V25v-0.5c-1.084,0-2-1.374-2-3s0.916-3,2-3v-2
		c-1.107,0-2.11,0.566-2.835,1.478c-0.053-0.086-0.108-0.169-0.165-0.25V15C61,13.346,62.346,12,64,12z M23,23H9.414l1-1H14
		c0.266,0,0.519-0.105,0.707-0.293l1.793-1.793l1.793,1.793c0.391,0.391,1.023,0.391,1.414,0L23,18.414l2.293,2.293
		C25.48,20.895,25.734,21,26,21h4.586l2,2H25.5H23z M43,10h8c3.52,0,6.442,2.612,6.929,6h-6.515l2.293-2.293l-1.414-1.414L48.586,16
		h-2.172l2.293-2.293l-1.414-1.414L43.586,16h-2.172l2.293-2.293l-1.414-1.414L38.586,16h-2.515C36.558,12.612,39.479,10,43,10z
		 M42.387,32.526c-2.045-2.739-1.823-6.646,0.663-9.133L48.443,18h6.377c-0.453,0.748-0.735,1.655-0.792,2.646L51,23.736V20h-2
		v5.777l-1.98,2.02c0-0.916-0.009-2.139-0.02-3.804l-2,0.014c0.014,2.034,0.028,5.339,0.008,5.844L42.387,32.526z M56,21
		c0-1.626,0.916-3,2-3s2,1.374,2,3s-0.916,3-2,3S56,22.626,56,21z M62,40h-2v-2h2V40z M62,36h-2v-2h2V36z M62,32h-2v-2h2V32z
		 M60,45.764V42h2v3.191C61.308,45.319,60.64,45.513,60,45.764z M62.035,25.828C62.024,25.886,62,25.939,62,26v2h-2v-2.695
		c0.303-0.221,0.589-0.473,0.835-0.782C61.161,25.054,61.567,25.495,62.035,25.828z"/>
	<path d="M4,45.969C4.912,47.194,6.359,48,8,48s3.088-0.806,4-2.031C12.912,47.194,14.359,48,16,48s3.088-0.806,4-2.031
		C20.912,47.194,22.359,48,24,48v-2c-1.654,0-3-1.346-3-3h-2c0,1.654-1.346,3-3,3s-3-1.346-3-3h-2c0,1.654-1.346,3-3,3s-3-1.346-3-3
		H3c0,1.654-1.346,3-3,3v2C1.641,48,3.088,47.194,4,45.969z"/>
	<path d="M4,33.969C4.912,35.194,6.359,36,8,36s3.088-0.806,4-2.031C12.912,35.194,14.359,36,16,36v-2c-1.654,0-3-1.346-3-3h-2
		c0,1.654-1.346,3-3,3s-3-1.346-3-3H3c0,1.654-1.346,3-3,3v2C1.641,36,3.088,35.194,4,33.969z"/>
	<path d="M37,49v-2c-1.654,0-3-1.346-3-3h-2c0,1.654-1.346,3-3,3v2c1.641,0,3.088-0.806,4-2.031C33.912,48.194,35.359,49,37,49z"/>
	<path d="M1,55c0,2.757,2.243,5,5,5c1.641,0,3.088-0.806,4-2.031C10.912,59.194,12.359,60,14,60c2.757,0,5-2.243,5-5h-2
		c0,1.654-1.346,3-3,3s-3-1.346-3-3H9c0,1.654-1.346,3-3,3s-3-1.346-3-3H1z"/>
	<rect x="25" y="42" width="2" height="2"/>
	<rect x="3" y="50" width="2" height="2"/>
	<rect x="7" y="50" width="2" height="2"/>
	<rect x="11" y="50" width="2" height="2"/>
</g>
<g>
</g>
<g>
</g>
<g>
</g>
<g>
</g>
<g>
</g>
<g>
</g>
<g>
</g>
<g>
</g>
<g>
</g>
<g>
</g>
<g>
</g>
<g>
</g>
<g>
</g>
<g>
</g>
<g>
</g>
</svg>
