<?xml version="1.0" encoding="iso-8859-1"?>
<!-- Generator: Adobe Illustrator 18.0.0, SVG Export Plug-In . SVG Version: 6.00 Build 0)  -->
<!DOCTYPE svg PUBLIC "-//W3C//DTD SVG 1.1//EN" "http://www.w3.org/Graphics/SVG/1.1/DTD/svg11.dtd">
<svg version="1.1" id="Capa_1" xmlns="http://www.w3.org/2000/svg" xmlns:xlink="http://www.w3.org/1999/xlink" x="0px" y="0px"
	 viewBox="0 0 63.467 63.467" style="enable-background:new 0 0 63.467 63.467;" xml:space="preserve">
<path style="fill:#231F20;" d="M55.54,15.01H43.418v-4.683c0-2.475-2.014-4.489-4.489-4.489h-14.39
	c-2.476,0-4.489,2.014-4.489,4.489v4.683H7.927C3.556,15.01,0,18.566,0,22.937v26.765c0,4.371,3.556,7.927,7.927,7.927H55.54
	c4.371,0,7.927-3.556,7.927-7.927V22.937C63.467,18.566,59.911,15.01,55.54,15.01z M45.237,21.01v30.618H18.229V21.01H45.237z
	 M26.05,11.839h11.368v3.171H26.05V11.839z M6,49.701V22.937c0-1.044,0.883-1.926,1.927-1.926h4.303v30.618H7.927
	C6.883,51.628,6,50.745,6,49.701z M57.467,49.701c0,1.044-0.883,1.927-1.927,1.927h-4.303V21.01h4.303
	c1.044,0,1.927,0.882,1.927,1.926V49.701z"/>
<g>
</g>
<g>
</g>
<g>
</g>
<g>
</g>
<g>
</g>
<g>
</g>
<g>
</g>
<g>
</g>
<g>
</g>
<g>
</g>
<g>
</g>
<g>
</g>
<g>
</g>
<g>
</g>
<g>
</g>
</svg>
