<?xml version="1.0" standalone="no"?>
<!DOCTYPE svg PUBLIC "-//W3C//DTD SVG 20010904//EN"
 "http://www.w3.org/TR/2001/REC-SVG-20010904/DTD/svg10.dtd">
<svg version="1.0" xmlns="http://www.w3.org/2000/svg"
 width="50.000000pt" height="50.000000pt" viewBox="0 0 50.000000 50.000000"
 preserveAspectRatio="xMidYMid meet">

<g transform="translate(0.000000,50.000000) scale(0.100000,-0.100000)"
fill="#000000" stroke="none">
<path d="M277 412 c-15 -15 -30 -42 -33 -60 -5 -24 -12 -32 -28 -32 -29 0
-114 41 -152 73 -27 23 -33 25 -38 11 -12 -30 -6 -61 16 -89 l22 -28 -23 6
c-21 5 -22 3 -17 -21 4 -15 21 -40 39 -56 18 -16 27 -26 20 -22 -6 3 -14 2
-18 -4 -8 -13 39 -60 60 -60 8 0 15 -4 15 -9 0 -11 -42 -28 -95 -39 l-40 -8
49 -17 c62 -21 148 -22 209 -1 92 31 169 133 183 241 4 27 15 56 25 66 25 24
24 30 -3 21 -23 -7 -23 -6 -4 15 23 26 17 35 -15 22 -18 -6 -30 -5 -44 5 -10
8 -37 14 -60 14 -32 0 -47 -6 -68 -28z"/>
</g>
</svg>
